<?xml version="1.0" encoding="UTF-8"?>
<!DOCTYPE svg PUBLIC "-//W3C//DTD SVG 1.1//EN" "http://www.w3.org/Graphics/SVG/1.1/DTD/svg11.dtd">
<svg version="1.1" xmlns="http://www.w3.org/2000/svg" xmlns:xlink="http://www.w3.org/1999/xlink" x="0" y="0" width="1000" height="1000" viewBox="0, 0, 1000, 1000">
  <g id="circle">
    <g>
      <path d="M493.93,987.167 C226.619,987.167 9.92,768.98 9.92,499.833 C9.92,230.687 226.619,12.5 493.93,12.5 C761.241,12.5 977.94,230.687 977.94,499.833 C977.94,768.98 761.241,987.167 493.93,987.167 z" fill="#000000"/>
      <path d="M493.93,987.167 C226.619,987.167 9.92,768.98 9.92,499.833 C9.92,230.687 226.619,12.5 493.93,12.5 C761.241,12.5 977.94,230.687 977.94,499.833 C977.94,768.98 761.241,987.167 493.93,987.167 z" fill-opacity="0" stroke="#000000" stroke-width="3"/>
    </g>
  </g>
  <g id="trace">
    <g>
      <path d="M693.488,239.515 L695.443,239.851 C707.916,243.048 744.832,279.348 753.342,288.071 C833.727,370.466 784.67,399.826 804.004,479.095 C811.018,507.855 825.848,550.884 818.479,581.099 C814.983,595.433 790.844,640.684 787.72,653.49 C780.967,681.176 804.925,722.179 811.241,748.075 C817.246,771.02 808.5,794.229 810.743,817.365 L810.8,817.877 L810.687,817.802 L810.711,817.877 L811.336,817.877 L811.336,819.835 L811.398,820.03 L811.934,821.134 C812.071,821.831 812.348,822.496 812.436,823.202 L813.485,826.341 C813.445,825.96 813.444,825.68 813.766,825.461 C813.954,827.457 813.983,826.633 813.87,827.931 C814.334,829.848 814.752,831.737 814.866,833.706 C815.557,833.981 815.664,834.628 815.732,835.242 L815.327,835.72 L815.327,835.72 L815.327,852.942 L814.981,853.197 C813.89,854.045 812.667,855.076 810.965,856.56 C810.188,857.241 809.414,857.926 808.64,858.61 L808.156,859.036 C805.4,861.473 802.644,863.91 799.878,866.336 L790.949,874.01 C789.111,875.412 789.962,874.712 788.382,876.092 L786.498,877.614 L784.773,879.01 L783.511,880.033 C777.176,885.425 770.512,890.378 763.857,895.351 C752.103,903.902 740.564,911.32 729.325,917.39 C715.827,924.679 703.714,929.825 677.607,939.925 C676.955,940.177 676.955,940.177 676.302,940.43 C654.853,948.727 645.126,952.694 633.213,958.323 C615.521,966.684 601.656,971.836 588.116,975.108 C566.196,980.405 549.642,981.222 488.17,981.148 C481.534,981.14 478.019,981.137 473.839,981.137 C468.432,981.166 463.471,983.318 459.67,987.167 C456.208,984.785 451.917,983.913 447.932,982.865 C443.017,981.842 437.672,981.418 431.185,981.324 C428.508,981.285 426.26,981.299 422.105,981.358 C420.334,981.381 418.563,981.415 416.792,981.402 C416.228,981.238 416.518,981.322 415.921,981.148 C407.073,978.581 401.267,977.006 395.108,975.592 C389.389,974.279 384.054,973.293 378.893,972.64 L377.693,972.464 C375.517,972.101 373.309,971.935 371.143,971.509 C370.987,971.487 371.098,971.504 370.812,971.445 C370.456,971.375 370.784,971.439 369.828,971.239 C354.471,968.803 339.741,963.79 325.114,958.648 C324.838,958.551 324.934,958.585 324.824,958.546 C324.525,958.441 324.639,958.483 324.48,958.423 C322.811,957.823 321.155,957.188 319.493,956.57 C311.765,953.698 315.643,955.16 307.861,952.182 C298.52,948.651 289.432,944.499 280.422,940.189 C278.221,939.091 275.95,938.135 273.764,937.005 C273.592,936.923 273.742,936.995 273.319,936.775 C272.326,936.265 271.338,935.748 270.348,935.233 C242.36,921.13 215.819,904.317 189.76,886.888 C188.276,885.886 186.828,884.442 183.388,880.51 C183.233,880.333 183.233,880.333 183.076,880.154 C178.613,875.149 181.217,877.968 175.165,871.793 L175.165,869.48 C174.038,869.607 173.54,869.072 173.02,868.207 C172.714,868.349 172.897,868.328 172.516,867.976 C171.624,868.001 171.955,868.059 171.508,867.961 L171.587,867.893 L171.425,867.866 C171.041,867.678 171.227,867.822 170.926,867.367 C170.488,867.344 170.77,867.375 170.091,867.191 L169.786,866.942 L169.675,866.959 C169.905,867.365 169.732,867.094 170.295,867.694 L171.508,867.961 C171.097,868.344 170.578,867.995 170.295,867.694 C169.835,867.643 169.364,867.325 169.228,866.858 C168.867,866.733 169.014,866.84 168.782,866.547 C167.972,866.673 167.934,866.696 167.424,866.516 C167.202,866.29 167.868,866.065 168.091,865.84 C168.561,865.239 168.387,865.536 168.653,864.975 C168.5,864.752 168.678,864.423 168.855,864.242 C168.95,864.001 168.872,864.118 169.134,863.926 L169.382,863.289 L169.409,863.192 C169.332,862.803 169.356,863.044 169.424,862.464 C169.656,862.248 169.478,862.41 169.98,862.005 C170.247,860.967 170.653,859.863 171.578,859.229 C171.776,859.093 172.043,859.112 172.276,859.054 L172.758,858.413 L173.461,858.225 C174.405,856.101 176.063,854.429 177.511,852.656 C177.808,851.552 178.314,850.705 179.195,850.078 C178.961,850.88 178.304,851.511 177.858,852.216 L179.108,850.685 C179.168,850.598 179.228,850.511 179.288,850.423 C179.291,850.419 179.295,850.414 179.299,850.41 L179.506,849.852 L179.194,850.077 C206.669,812.987 182.969,784.719 192.016,748.075 C198.41,722.179 222.662,681.176 215.826,653.491 C212.665,640.684 188.229,595.433 184.69,581.099 C177.23,550.884 192.242,507.855 199.342,479.096 C218.914,399.826 169.255,370.466 250.626,288.071 C259.241,279.349 296.61,243.048 309.236,239.852 L311.215,239.515 C312.331,239.656 313.504,239.553 314.562,239.937 C321.805,242.565 321.877,255.517 322.063,261.371 C322.345,270.26 321.89,277.354 321.716,286.252 C321.563,294.021 320.865,302.942 323.889,310.327 C332.561,327.889 346.615,341.514 355.026,358.546 C384.156,417.541 385.112,392.966 398.983,477.241 C406.34,521.937 382.499,556.661 382.499,599.645 C382.499,636.78 442.702,616.336 470.414,616.336 L473.037,616.526 C475.994,616.271 474.864,616.366 476.428,616.236 L475.68,616.167 L477.057,616.184 C487.639,615.25 498.241,614.562 508.862,614.335 C517.372,614.153 526.111,614.265 534.372,616.541 C535.059,616.467 534.443,616.534 536.22,616.336 C563.596,616.336 623.069,636.78 623.069,599.645 C623.069,556.66 599.517,521.937 606.785,477.241 C620.488,392.966 621.432,417.541 650.209,358.546 C658.518,341.514 672.401,327.889 680.968,310.327 C681.856,308.132 681.969,308.076 682.478,305.012 C683.495,298.882 683.234,292.414 683.115,286.252 C682.901,275.225 682.107,264.14 683.415,253.146 C683.946,248.678 685.289,241.734 690.181,239.937 C691.226,239.553 692.386,239.656 693.488,239.516 L693.488,239.515 z M173.218,868.116 L173.049,868.195 C173.269,868.515 173.132,868.414 173.425,868.541 C173.641,868.371 173.546,868.497 173.218,868.116 z M172.93,867.964 L172.866,867.966 C172.954,868.048 172.919,868.005 172.977,868.09 L172.93,867.964 z M171.9,867.358 L171.822,867.385 L171.956,867.456 L171.9,867.358 z M169.502,863.656 L169.242,863.846 L169.216,863.873 C169.085,864.335 169.132,864.095 169.078,864.597 C168.835,864.607 168.886,864.673 168.832,864.597 L168.653,864.975 L168.758,865.165 L168.781,865.177 L169.045,864.907 L169.078,864.597 C169.268,864.588 169.203,864.618 169.292,864.567 L169.512,863.709 L169.502,863.656 z M169.219,863.864 L169.134,863.926 L169.114,863.978 L169.216,863.873 L169.219,863.864 z M172.971,859.706 L172.9,859.725 C172.72,859.832 172.801,859.773 172.654,859.896 L172.559,860.063 L172.227,860.253 L171.512,860.849 L171.519,860.85 C171.845,860.606 171.544,860.829 172.46,860.239 L172.559,860.063 C172.721,859.972 172.88,859.878 173.04,859.786 L172.967,859.722 L172.971,859.706 z M172.717,858.943 L172.276,859.054 C171.678,859.849 172.043,859.31 171.328,860.765 L172.227,860.253 L172.654,859.896 C172.654,859.895 172.655,859.894 172.656,859.893 C172.69,859.85 172.724,859.807 172.758,859.764 L172.9,859.725 L172.976,859.679 L173.104,859.022 L172.717,858.943 z M188.348,856.93 L187.772,856.473 C188.049,857.067 188.343,857.652 188.636,858.238 L188.636,858.238 L188.636,858.238 L196.668,858.238 L196.178,857.649 L195.933,856.391 L195.679,856.402 L195.679,857.745 L195.906,858.238 L193.671,858.238 L193.671,858.237 L193.671,858.238 L189.155,858.238 L188.979,857.9 L188.979,857.9 L188.978,857.9 L188.978,857.9 L188.977,857.898 L188.466,857.091 L188.465,857.09 L188.465,857.09 L188.465,857.089 L188.464,857.089 L188.349,856.931 L188.348,856.93 z M681.749,848.376 L681.749,848.376 L681.749,858.238 L681.749,858.238 L681.749,848.376 z M187.463,856.525 L187.393,857.171 L187.393,857.173 L187.497,857.794 L187.583,858.238 L182.124,858.238 L182.116,858.237 L182.116,858.238 L180.205,858.238 L180.205,858.238 L188.636,858.238 L188.039,858.238 C187.569,856.822 187.764,857.392 187.463,856.526 L187.463,856.525 z M191.535,856.063 L191.55,856.097 C191.971,857.435 191.785,856.804 192.117,857.99 L192.324,857.999 L192.956,858.067 C192.816,857.762 192.677,857.456 192.537,857.15 C192.538,857.146 192.539,857.142 192.539,857.137 L191.75,856.151 L191.535,856.063 z M186.918,853.787 L186.762,854.021 C187.15,855.025 186.982,854.61 187.254,855.272 C187.666,856.246 187.501,855.88 187.729,856.379 C188.013,856.494 188.173,856.69 188.348,856.93 L188.349,856.93 L188.349,856.931 L188.349,856.931 L188.349,856.931 C188.436,857.016 188.395,856.965 188.464,857.089 L188.465,857.09 L188.465,857.09 L188.466,857.091 C188.838,857.61 188.667,857.341 188.977,857.898 L188.978,857.899 L188.978,857.9 L188.979,857.9 L189.043,857.901 C188.669,857.057 188.499,856.178 188.353,855.272 C188.9,856.068 189.148,857.007 189.475,857.906 L190.089,857.917 C189.985,857.612 188.505,855.396 189.818,856.384 C190.124,856.846 190.221,857.394 190.352,857.923 L190.395,857.924 C190.297,857.095 190.18,856.3 190.26,855.448 L190.308,855.251 C189.29,854.507 189.672,854.925 189.081,854.08 L188.651,854.035 L188.719,854.158 C189.086,854.777 190.455,855.691 189.818,856.013 C188.525,856.018 188.252,855.027 187.603,853.987 C187.192,854.096 187.43,854.097 186.918,853.787 L186.918,853.787 z M186.68,854.144 C186.014,855.131 185.002,856.383 186.178,857.465 C186.409,857.678 186.776,857.646 187.076,857.737 C186.465,856.402 186.679,856.972 186.365,856.057 C186.351,855.975 186.505,856.154 186.548,856.225 C187.201,857.405 186.929,856.884 187.382,857.779 L187.497,857.794 C187.384,857.209 187.367,857.419 187.393,857.173 L187.393,857.172 L187.393,857.171 C187.372,856.729 187.351,856.948 187.46,856.515 C186.687,854.292 186.82,855.114 186.68,854.145 L186.68,854.144 z M185.033,854.762 L184.71,855.188 L184.714,855.454 C184.719,855.452 184.724,855.449 184.729,855.446 L184.98,855.311 L185.033,854.762 z M185.968,853.213 C185.796,853.737 185.479,854.161 185.16,854.596 L185.315,855.154 C185.755,854.715 186.195,854.277 186.635,853.837 L186.602,853.607 L186.597,853.593 L185.968,853.213 z M181.416,852.362 L180.821,853.08 L180.675,854.573 L181.392,853.787 L181.467,854.757 C181.459,853.917 181.601,853.572 181.97,852.85 C182.73,852.095 181.254,853.506 181.248,853.231 C181.245,853.136 181.367,853.085 181.427,853.012 C181.988,852.653 181.76,852.797 182.109,852.578 L182.169,852.461 L182.256,852.485 L182.432,852.374 C182.094,852.379 181.755,852.375 181.416,852.362 z M180.924,848.83 L179.587,849.794 L179.649,850 C179.662,849.989 179.661,849.989 179.65,850.003 L179.705,850.185 C179.292,850.386 179.513,850.226 179.154,850.796 L178.956,851.325 C178.636,851.735 178.79,851.542 178.495,851.907 L178.125,852.803 C177.205,853.759 177.629,853.365 176.882,854.018 L176.743,854.224 C176.581,854.617 176.584,854.454 176.605,854.693 C177.199,854.085 176.826,854.432 177.774,853.71 C177.971,853.23 177.851,853.531 178.125,852.804 L178.581,852.329 L178.956,851.325 L179.745,850.319 L179.705,850.185 L179.927,850.077 C179.76,850.301 179.822,850.222 179.745,850.319 C179.511,851.313 179.159,851.73 178.581,852.329 L178.175,853.416 L178.674,853.071 C178.875,852.722 178.691,853.038 179.31,852.178 C179.642,851.48 179.934,850.762 180.294,850.078 C181.057,850.522 180.238,851.269 179.885,851.726 C179.885,851.726 179.886,851.726 179.886,851.726 C179.9,851.795 179.914,851.864 179.928,851.933 C179.833,852.485 179.899,852.232 179.746,852.697 C180.335,852.609 180.072,852.652 180.536,852.573 C180.751,852.297 180.599,852.494 180.985,851.975 C181.126,851.403 181.212,850.817 181.38,850.252 C181.347,850.21 181.365,850.239 181.347,850.155 L181.422,850.109 C181.596,849.525 181.502,849.843 181.706,849.157 C180.748,849.572 181.033,849.784 180.66,849.337 C180.903,848.852 180.786,849.002 180.924,848.831 L180.924,848.83 z M176.728,854.043 L176.322,854.507 L176.57,854.289 L176.728,854.043 z M179.268,850.489 L179.108,850.685 C177.992,852.321 178.588,851.434 177.327,853.351 C177.13,853.596 177.277,853.416 176.872,853.878 L176.79,854.097 L176.882,854.017 C177.262,853.451 177.114,853.674 177.327,853.351 L178.494,851.906 C178.71,851.384 178.535,851.778 179.154,850.796 L179.268,850.489 z M186.6,853.595 L186.602,853.607 L186.675,853.797 L186.773,853.699 L186.6,853.595 z M177.407,852.928 C176.946,853.659 177.062,853.369 176.927,853.731 C177.224,853.265 177.079,853.493 177.363,853.046 L177.407,852.928 z M182.604,852.375 C182.458,852.495 182.535,852.435 182.372,852.555 L182.492,852.675 L182.554,853.096 L182.858,852.674 C182.607,853.06 182.706,852.906 182.56,853.136 L182.596,853.381 C182.976,852.565 182.772,852.886 183.14,852.378 C182.833,852.379 183.012,852.38 182.604,852.375 z M180.875,852.513 C180.827,852.529 180.871,852.515 180.741,852.539 L180.672,853.273 L180.81,853.095 C180.813,853.09 180.817,853.085 180.821,853.08 C180.862,852.614 180.842,852.802 180.875,852.513 z M196.261,851.625 L196.149,853.258 C196.3,851.891 196.31,852.437 196.261,851.626 L196.261,851.625 z M183.713,852.43 L183.516,852.95 C183.589,852.883 183.524,852.936 183.763,852.999 C184.201,852.659 184.016,852.803 184.319,852.566 L183.713,852.43 z M179.884,851.726 C179.584,851.764 179.476,851.946 179.31,852.178 L178.959,852.933 L178.998,852.917 L179.195,852.674 L179.2,852.675 L179.037,852.901 C179.167,852.851 179.293,852.784 179.43,852.757 C179.377,852.662 179.424,852.729 179.2,852.676 L179.884,851.726 z M180.755,852.387 L180.638,852.556 L180.741,852.539 L180.755,852.387 z M180.95,852.12 L180.862,852.232 L180.789,852.338 L180.898,852.342 L180.95,852.121 L180.95,852.12 z M182.575,851.003 C182.448,851.397 182.09,851.91 182.093,852.337 C182.589,851.733 182.418,851.973 182.644,851.646 C182.445,851.434 182.574,851.606 182.575,851.003 z M182.432,851.056 C181.673,852.063 182.003,851.653 181.465,852.302 C182.264,851.593 181.942,852.009 182.432,851.056 z M185.123,851.175 L185.081,851.27 L185.159,851.285 L185.123,851.175 z M184.419,849.862 L184.394,849.867 L184.043,850.083 L183.96,850.168 L184.599,850.232 C184.501,850.593 184.592,850.304 184.094,850.986 L183.913,851.046 L184.109,851.084 L184.323,850.82 L184.215,851.104 L184.271,851.115 C184.461,850.918 184.651,850.721 184.841,850.524 C184.847,850.518 184.852,850.511 184.858,850.505 C184.794,850.403 184.851,850.493 184.684,850.241 L184.599,850.232 L184.621,850.151 L184.419,849.862 z M196.9,846.291 L196.611,846.534 L196.343,850.431 L196.9,851.107 L196.9,846.291 z M185.159,849.732 L184.714,849.81 L184.621,850.151 L184.684,850.241 L185.066,850.279 C185.096,849.903 185.064,850.086 185.159,849.732 z M188.372,845.647 C188.257,845.901 188.346,845.714 188.06,846.184 L188.095,846.26 C187.991,846.51 188.066,846.42 187.9,846.556 C187.437,847.144 187.746,846.771 186.931,847.636 C186.449,848.239 186.721,847.939 186.104,848.525 C186.128,848.612 186.118,848.695 186.11,848.784 C186.285,848.735 186.355,848.671 186.54,848.715 C187.032,848.261 187.425,847.727 187.817,847.187 L187.817,847.187 L187.817,847.187 C188.161,846.516 187.958,846.831 188.429,846.241 L188.429,846.24 L188.429,846.24 L188.429,846.239 C188.506,845.94 188.602,845.887 188.372,845.647 z M181.975,848.073 L181.4,848.487 L181.392,848.594 L181.763,848.542 L181.975,848.073 z M187.319,845.478 L187.166,845.488 C186.536,846.15 185.939,846.852 185.226,847.423 L185.152,847.673 C185.892,847.118 185.568,847.373 186.131,846.918 C186.252,846.543 186.163,846.77 186.45,846.26 C186.621,846.027 186.931,845.942 187.172,845.783 L187.319,845.478 z M188.696,845.888 L188.429,846.239 L188.429,846.24 L188.429,846.24 L188.429,846.241 C188.297,846.608 188.063,846.895 187.817,847.187 L187.817,847.187 C187.666,847.537 187.599,847.59 187.986,847.482 L188.651,846.988 C188.701,846.057 188.696,846.425 188.696,845.889 L188.696,845.888 z M184.351,846.359 L184.272,846.416 C184.137,846.567 183.986,846.687 183.893,846.869 L183.956,846.895 C184.106,846.731 184.232,846.548 184.351,846.36 L184.351,846.359 z M187.398,845.629 L187.172,845.783 L186.944,846.26 C187.178,846.072 186.981,846.239 187.398,845.629 z M186.198,845.952 C186.17,845.97 186.188,845.956 186.15,846.003 L186.155,845.999 L186.198,845.952 z M188.325,843.494 L186.807,844.589 L186.802,844.598 L186.814,844.619 C187.72,844.074 187.296,844.201 188.028,844.076 C188.127,843.882 188.224,843.687 188.325,843.494 L188.325,843.494 z M188.885,843.09 L188.708,843.217 C188.717,843.369 188.687,843.474 188.604,843.596 L188.832,843.378 L188.885,843.09 z M195.696,839.004 C196.41,841.212 196.262,840.114 196.211,842.287 L196.9,842.339 L196.872,842.742 L196.9,842.736 L196.9,839.057 L195.696,839.004 z M196.9,837.311 L195.368,838.416 C195.906,838.559 196.401,838.814 196.9,839.057 L196.9,837.311 z M812.539,833.577 C812.735,834.03 812.91,834.491 813.085,834.951 L813.086,834.952 L813.086,834.952 L813.086,834.952 L813.402,834.952 L813.311,834.727 C813.056,834.343 812.798,833.961 812.54,833.578 L812.539,833.577 z M811.336,826.872 L811.336,834.952 L813.086,834.952 L813.085,834.951 L811.817,832.348 C811.582,832.246 811.703,832.309 811.458,832.151 L811.652,832.009 L811.336,831.36 L811.416,831.464 L811.336,831.302 L811.473,831.538 C811.662,831.781 811.859,831.999 811.984,832.281 L812.243,832.514 C813.416,832.972 812.976,832.763 813.594,833.071 C813.355,832.476 813.502,832.845 813.157,831.962 C812.95,832.52 813.145,832.404 812.545,832.262 L811.336,826.872 z M812.052,832.442 L812.204,832.793 L813.268,834.62 C812.726,833.281 813.055,833.989 812.243,832.515 L812.052,832.442 z M812.524,825.518 L812.528,825.665 C813.181,828.902 813.069,827.531 813.136,829.747 L813.514,830.997 L813.286,831.614 L813.667,833.107 L814.258,833.403 C813.986,832.609 813.758,831.8 813.514,830.997 C813.7,830.48 813.647,830.738 813.686,830.224 L812.524,825.518 z M812.623,827.89 L812.64,828.111 L812.737,828.433 L813.155,830.407 L813.135,829.747 L812.737,828.433 L812.623,827.89 z M808.817,816.573 L808.216,817.877 L809.785,817.877 L809.654,817.362 L809.403,816.959 L808.817,816.573 z M810.456,817.65 L810.504,817.877 L810.638,817.877 L810.607,817.75 L810.456,817.65 z M809.525,817.039 L809.654,817.362 L809.753,817.503 L809.71,817.16 L809.525,817.039 z M498.342,620.729 L498.595,620.812 C497.73,620.873 498.04,620.849 497.667,620.878 L498.802,620.878 C498.679,620.841 498.748,620.862 498.595,620.812 L499.487,620.753 L499.487,620.742 L498.342,620.729 z M499.635,620.743 L499.487,620.753 L499.49,620.86 L499.558,620.878 L500.335,620.878 C500.339,620.821 500.337,620.857 500.334,620.771 L500.328,620.767 L500.086,620.748 L499.635,620.743 z M506.998,620.877 L506.998,620.878 L507.451,620.878 L507.452,620.877 L506.998,620.877 z M507.589,620.877 L507.589,620.878 L511.04,620.878 L511.039,620.877 L507.589,620.877 z M507.72,620.766 L506.84,620.768 L506.915,620.821 L507.697,620.786 L507.72,620.766 z M508.176,620.764 L507.915,620.765 L507.86,620.778 L508.176,620.764 z M497.615,620.493 L497.498,620.578 L497.939,620.598 L498.331,620.726 L499.486,620.726 L499.485,620.67 L497.939,620.598 L497.615,620.493 z M498.067,620.168 L497.924,620.271 C498.981,620.428 498.462,620.351 499.48,620.502 L499.485,620.67 L500.238,620.705 L500.073,620.59 L499.48,620.502 L499.478,620.44 C499.008,620.35 498.534,620.277 498.067,620.168 z M507.274,619.787 C507.013,620.224 506.323,620.232 505.868,620.292 L506.064,620.562 L506.446,620.628 C507.122,620.574 506.6,620.618 508.007,620.468 L508.055,620.402 C507.766,620.237 507.488,620.047 507.274,619.787 z M516.12,619.489 C515.098,619.489 514.076,619.489 513.054,619.489 C512.067,619.766 511.072,620.005 510.076,620.244 L510.084,620.249 C512.174,620.021 514.267,619.838 516.36,619.642 L516.36,619.641 L516.12,619.489 z M517.171,618.795 C517.431,618.982 517.69,619.17 517.95,619.357 L518.442,619.44 L518.933,619.334 L519.014,618.891 C518.26,618.845 518.873,618.882 517.171,618.795 z M519.007,618.928 L517.407,618.965 C517.94,618.949 518.473,618.938 519.007,618.928 z M516.773,618.774 C515.705,618.79 516.123,618.741 515.51,618.833 L515.937,619.02 L516.625,619.135 L516.827,618.835 L517.013,618.787 L516.773,618.774 z M491.083,618.006 L489.832,618.097 L489.754,618.116 C490.537,618.248 491.311,618.431 492.086,618.601 L492.124,618.629 L492.304,618.648 L492.614,618.716 L492.822,618.835 L493.136,618.945 C493.285,618.962 493.186,618.951 493.434,618.98 C493.151,618.866 493.324,618.937 492.916,618.767 C492.712,618.742 492.812,618.759 492.614,618.716 C492.471,618.634 492.568,618.676 492.304,618.648 L492.086,618.601 L491.535,618.194 C491.156,618.036 491.307,618.098 491.083,618.006 z M514.623,618.449 L515.26,618.897 L515.048,618.954 L515.363,618.97 L515.26,618.897 L515.494,618.835 L515.51,618.833 C514.779,618.513 515.076,618.639 514.623,618.449 z M492.193,618.68 C492.414,618.843 492.299,618.78 492.534,618.875 L492.879,618.915 L492.822,618.835 L492.193,618.68 z M513.374,617.725 L513.507,617.783 C513.508,617.784 513.51,617.785 513.511,617.785 C517.96,618.736 516.106,618.487 519.032,618.787 C519.079,618.505 519.154,618.228 519.219,617.949 L516.653,617.833 L513.374,617.725 z M528.483,617.17 L525.858,617.174 C525.065,618.438 523.572,618.184 522.298,618.018 L519.966,617.97 C520.959,618.342 520.388,618.102 521.658,618.747 C525.295,617.963 522.94,618.467 528.727,617.251 L528.483,617.17 z M503.322,617.394 C503.184,617.895 503.288,617.711 503.091,617.988 L503.201,618.03 C504.476,617.943 505.773,617.996 506.99,618.462 L507.045,618.252 L507.518,618.563 L509.246,618.659 C509.558,618.204 509.302,618.569 510.082,617.617 L504.975,617.449 L507.045,617.789 C505.907,617.59 504.742,617.61 503.606,617.404 L503.322,617.394 z M489.424,618.13 L489.363,618.131 L488.861,618.167 L489.611,618.305 C489.693,618.381 489.72,618.441 489.736,618.552 C490.264,618.613 490.002,618.583 490.523,618.642 C490.68,618.624 491.242,618.554 491.431,618.558 C491.582,618.561 491.733,618.588 491.883,618.603 C491.139,618.433 490.363,618.444 489.611,618.305 L489.488,618.16 L489.424,618.13 z M486.978,617.73 C488.178,617.992 487.596,617.856 488.724,618.135 L489.363,618.131 L489.416,618.127 L489.148,618.005 C487.527,617.707 488.253,617.77 486.978,617.73 z M489.488,617.484 L485.846,617.484 C486.672,617.593 488.405,617.667 489.148,618.005 L489.7,618.106 L489.832,618.097 L490.733,617.87 C490.32,617.735 489.903,617.613 489.488,617.484 z M519.319,617.525 L519.274,617.711 L519.882,617.938 L522.292,618.017 L522.049,617.986 C519.969,617.688 520.876,617.858 519.319,617.525 z M516.688,616.927 C514.158,617.285 515.445,617.099 512.826,617.484 L512.339,617.484 L512.507,617.498 C512.672,617.487 512.566,617.493 512.826,617.484 L512.936,617.533 L516.653,617.833 L519.226,617.917 L519.274,617.711 L517.563,617.15 C517.243,617.082 517.537,617.145 516.688,616.927 z M479.469,616.551 L473.384,616.551 C476.439,616.653 479.451,617.151 482.472,617.573 C483.117,617.437 482.778,617.475 483.491,617.477 C483.509,617.445 483.51,617.393 483.544,617.38 C484.129,617.143 484.799,617.325 485.395,617.436 L485.582,617.456 C486.52,617.176 486.12,617.27 486.773,617.136 C485.751,616.948 484.665,617.126 483.683,616.75 L480.03,616.63 L480.803,616.551 L480.282,616.551 C480.011,616.56 479.739,616.579 479.469,616.551 z M501.182,617.324 C501.676,617.436 501.479,617.37 501.785,617.487 L501.975,617.35 L501.182,617.324 z M511.666,617.387 C511.534,617.393 511.565,617.357 511.529,617.419 L512.08,617.464 L511.86,617.394 L511.666,617.387 z M510.307,616.616 L505.742,616.946 L510.324,617.321 C510.771,616.774 510.552,616.999 510.959,616.624 L510.307,616.616 z M525.715,616.645 L525.791,616.836 L528.243,617.098 C527.232,616.795 528.056,617.028 525.715,616.645 z M534.283,616.551 L530.862,616.551 L531.93,616.808 L534.283,616.551 z" fill="#FFFFFF"/>
      <path d="M693.488,239.515 L695.443,239.851 C707.916,243.048 744.832,279.348 753.342,288.071 C833.727,370.466 784.67,399.826 804.004,479.095 C811.018,507.855 825.848,550.884 818.479,581.099 C814.983,595.433 790.844,640.684 787.72,653.49 C780.967,681.176 804.925,722.179 811.241,748.075 C817.246,771.02 808.5,794.229 810.743,817.365 L810.8,817.877 L810.687,817.802 L810.711,817.877 L811.336,817.877 L811.336,819.835 L811.398,820.03 L811.934,821.134 C812.071,821.831 812.348,822.496 812.436,823.202 L813.485,826.341 C813.445,825.96 813.444,825.68 813.766,825.461 C813.954,827.457 813.983,826.633 813.87,827.931 C814.334,829.848 814.752,831.737 814.866,833.706 C815.557,833.981 815.664,834.628 815.732,835.242 L815.327,835.72 L815.327,835.72 L815.327,852.942 L814.981,853.197 C813.89,854.045 812.667,855.076 810.965,856.56 C810.188,857.241 809.414,857.926 808.64,858.61 L808.156,859.036 C805.4,861.473 802.644,863.91 799.878,866.336 L790.949,874.01 C789.111,875.412 789.962,874.712 788.382,876.092 L786.498,877.614 L784.773,879.01 L783.511,880.033 C777.176,885.425 770.512,890.378 763.857,895.351 C752.103,903.902 740.564,911.32 729.325,917.39 C715.827,924.679 703.714,929.825 677.607,939.925 C676.955,940.177 676.955,940.177 676.302,940.43 C654.853,948.727 645.126,952.694 633.213,958.323 C615.521,966.684 601.656,971.836 588.116,975.108 C566.196,980.405 549.642,981.222 488.17,981.148 C481.534,981.14 478.019,981.137 473.839,981.137 C468.432,981.166 463.471,983.318 459.67,987.167 C456.208,984.785 451.917,983.913 447.932,982.865 C443.017,981.842 437.672,981.418 431.185,981.324 C428.508,981.285 426.26,981.299 422.105,981.358 C420.334,981.381 418.563,981.415 416.792,981.402 C416.228,981.238 416.518,981.322 415.921,981.148 C407.073,978.581 401.267,977.006 395.108,975.592 C389.389,974.279 384.054,973.293 378.893,972.64 L377.693,972.464 C375.517,972.101 373.309,971.935 371.143,971.509 C370.987,971.487 371.098,971.504 370.812,971.445 C370.456,971.375 370.784,971.439 369.828,971.239 C354.471,968.803 339.741,963.79 325.114,958.648 C324.838,958.551 324.934,958.585 324.824,958.546 C324.525,958.441 324.639,958.483 324.48,958.423 C322.811,957.823 321.155,957.188 319.493,956.57 C311.765,953.698 315.643,955.16 307.861,952.182 C298.52,948.651 289.432,944.499 280.422,940.189 C278.221,939.091 275.95,938.135 273.764,937.005 C273.592,936.923 273.742,936.995 273.319,936.775 C272.326,936.265 271.338,935.748 270.348,935.233 C242.36,921.13 215.819,904.317 189.76,886.888 C188.276,885.886 186.828,884.442 183.388,880.51 C183.233,880.333 183.233,880.333 183.076,880.154 C178.613,875.149 181.217,877.968 175.165,871.793 L175.165,869.48 C174.038,869.607 173.54,869.072 173.02,868.207 C172.714,868.349 172.897,868.328 172.516,867.976 C171.624,868.001 171.955,868.059 171.508,867.961 L171.587,867.893 L171.425,867.866 C171.041,867.678 171.227,867.822 170.926,867.367 C170.488,867.344 170.77,867.375 170.091,867.191 L169.786,866.942 L169.675,866.959 C169.905,867.365 169.732,867.094 170.295,867.694 L171.508,867.961 C171.097,868.344 170.578,867.995 170.295,867.694 C169.835,867.643 169.364,867.325 169.228,866.858 C168.867,866.733 169.014,866.84 168.782,866.547 C167.972,866.673 167.934,866.696 167.424,866.516 C167.202,866.29 167.868,866.065 168.091,865.84 C168.561,865.239 168.387,865.536 168.653,864.975 C168.5,864.752 168.678,864.423 168.855,864.242 C168.95,864.001 168.872,864.118 169.134,863.926 L169.382,863.289 L169.409,863.192 C169.332,862.803 169.356,863.044 169.424,862.464 C169.656,862.248 169.478,862.41 169.98,862.005 C170.247,860.967 170.653,859.863 171.578,859.229 C171.776,859.093 172.043,859.112 172.276,859.054 L172.758,858.413 L173.461,858.225 C174.405,856.101 176.063,854.429 177.511,852.656 C177.808,851.552 178.314,850.705 179.195,850.078 C178.961,850.88 178.304,851.511 177.858,852.216 L179.108,850.685 C179.168,850.598 179.228,850.511 179.288,850.423 C179.291,850.419 179.295,850.414 179.299,850.41 L179.506,849.852 L179.194,850.077 C206.669,812.987 182.969,784.719 192.016,748.075 C198.41,722.179 222.662,681.176 215.826,653.491 C212.665,640.684 188.229,595.433 184.69,581.099 C177.23,550.884 192.242,507.855 199.342,479.096 C218.914,399.826 169.255,370.466 250.626,288.071 C259.241,279.349 296.61,243.048 309.236,239.852 L311.215,239.515 C312.331,239.656 313.504,239.553 314.562,239.937 C321.805,242.565 321.877,255.517 322.063,261.371 C322.345,270.26 321.89,277.354 321.716,286.252 C321.563,294.021 320.865,302.942 323.889,310.327 C332.561,327.889 346.615,341.514 355.026,358.546 C384.156,417.541 385.112,392.966 398.983,477.241 C406.34,521.937 382.499,556.661 382.499,599.645 C382.499,636.78 442.702,616.336 470.414,616.336 L473.037,616.526 C475.994,616.271 474.864,616.366 476.428,616.236 L475.68,616.167 L477.057,616.184 C487.639,615.25 498.241,614.562 508.862,614.335 C517.372,614.153 526.111,614.265 534.372,616.541 C535.059,616.467 534.443,616.534 536.22,616.336 C563.596,616.336 623.069,636.78 623.069,599.645 C623.069,556.66 599.517,521.937 606.785,477.241 C620.488,392.966 621.432,417.541 650.209,358.546 C658.518,341.514 672.401,327.889 680.968,310.327 C681.856,308.132 681.969,308.076 682.478,305.012 C683.495,298.882 683.234,292.414 683.115,286.252 C682.901,275.225 682.107,264.14 683.415,253.146 C683.946,248.678 685.289,241.734 690.181,239.937 C691.226,239.553 692.386,239.656 693.488,239.516 L693.488,239.515 z M173.218,868.116 L173.049,868.195 C173.269,868.515 173.132,868.414 173.425,868.541 C173.641,868.371 173.546,868.497 173.218,868.116 z M172.93,867.964 L172.866,867.966 C172.954,868.048 172.919,868.005 172.977,868.09 L172.93,867.964 z M171.9,867.358 L171.822,867.385 L171.956,867.456 L171.9,867.358 z M169.502,863.656 L169.242,863.846 L169.216,863.873 C169.085,864.335 169.132,864.095 169.078,864.597 C168.835,864.607 168.886,864.673 168.832,864.597 L168.653,864.975 L168.758,865.165 L168.781,865.177 L169.045,864.907 L169.078,864.597 C169.268,864.588 169.203,864.618 169.292,864.567 L169.512,863.709 L169.502,863.656 z M169.219,863.864 L169.134,863.926 L169.114,863.978 L169.216,863.873 L169.219,863.864 z M172.971,859.706 L172.9,859.725 C172.72,859.832 172.801,859.773 172.654,859.896 L172.559,860.063 L172.227,860.253 L171.512,860.849 L171.519,860.85 C171.845,860.606 171.544,860.829 172.46,860.239 L172.559,860.063 C172.721,859.972 172.88,859.878 173.04,859.786 L172.967,859.722 L172.971,859.706 z M172.717,858.943 L172.276,859.054 C171.678,859.849 172.043,859.31 171.328,860.765 L172.227,860.253 L172.654,859.896 C172.654,859.895 172.655,859.894 172.656,859.893 C172.69,859.85 172.724,859.807 172.758,859.764 L172.9,859.725 L172.976,859.679 L173.104,859.022 L172.717,858.943 z M188.348,856.93 L187.772,856.473 C188.049,857.067 188.343,857.652 188.636,858.238 L188.636,858.238 L188.636,858.238 L196.668,858.238 L196.178,857.649 L195.933,856.391 L195.679,856.402 L195.679,857.745 L195.906,858.238 L193.671,858.238 L193.671,858.237 L193.671,858.238 L189.155,858.238 L188.979,857.9 L188.979,857.9 L188.978,857.9 L188.978,857.9 L188.977,857.898 L188.466,857.091 L188.465,857.09 L188.465,857.09 L188.465,857.089 L188.464,857.089 L188.349,856.931 L188.348,856.93 z M681.749,848.376 L681.749,848.376 L681.749,858.238 L681.749,858.238 L681.749,848.376 z M187.463,856.525 L187.393,857.171 L187.393,857.173 L187.497,857.794 L187.583,858.238 L182.124,858.238 L182.116,858.237 L182.116,858.238 L180.205,858.238 L180.205,858.238 L188.636,858.238 L188.039,858.238 C187.569,856.822 187.764,857.392 187.463,856.526 L187.463,856.525 z M191.535,856.063 L191.55,856.097 C191.971,857.435 191.785,856.804 192.117,857.99 L192.324,857.999 L192.956,858.067 C192.816,857.762 192.677,857.456 192.537,857.15 C192.538,857.146 192.539,857.142 192.539,857.137 L191.75,856.151 L191.535,856.063 z M186.918,853.787 L186.762,854.021 C187.15,855.025 186.982,854.61 187.254,855.272 C187.666,856.246 187.501,855.88 187.729,856.379 C188.013,856.494 188.173,856.69 188.348,856.93 L188.349,856.93 L188.349,856.931 L188.349,856.931 L188.349,856.931 C188.436,857.016 188.395,856.965 188.464,857.089 L188.465,857.09 L188.465,857.09 L188.466,857.091 C188.838,857.61 188.667,857.341 188.977,857.898 L188.978,857.899 L188.978,857.9 L188.979,857.9 L189.043,857.901 C188.669,857.057 188.499,856.178 188.353,855.272 C188.9,856.068 189.148,857.007 189.475,857.906 L190.089,857.917 C189.985,857.612 188.505,855.396 189.818,856.384 C190.124,856.846 190.221,857.394 190.352,857.923 L190.395,857.924 C190.297,857.095 190.18,856.3 190.26,855.448 L190.308,855.251 C189.29,854.507 189.672,854.925 189.081,854.08 L188.651,854.035 L188.719,854.158 C189.086,854.777 190.455,855.691 189.818,856.013 C188.525,856.018 188.252,855.027 187.603,853.987 C187.192,854.096 187.43,854.097 186.918,853.787 L186.918,853.787 z M186.68,854.144 C186.014,855.131 185.002,856.383 186.178,857.465 C186.409,857.678 186.776,857.646 187.076,857.737 C186.465,856.402 186.679,856.972 186.365,856.057 C186.351,855.975 186.505,856.154 186.548,856.225 C187.201,857.405 186.929,856.884 187.382,857.779 L187.497,857.794 C187.384,857.209 187.367,857.419 187.393,857.173 L187.393,857.172 L187.393,857.171 C187.372,856.729 187.351,856.948 187.46,856.515 C186.687,854.292 186.82,855.114 186.68,854.145 L186.68,854.144 z M185.033,854.762 L184.71,855.188 L184.714,855.454 C184.719,855.452 184.724,855.449 184.729,855.446 L184.98,855.311 L185.033,854.762 z M185.968,853.213 C185.796,853.737 185.479,854.161 185.16,854.596 L185.315,855.154 C185.755,854.715 186.195,854.277 186.635,853.837 L186.602,853.607 L186.597,853.593 L185.968,853.213 z M181.416,852.362 L180.821,853.08 L180.675,854.573 L181.392,853.787 L181.467,854.757 C181.459,853.917 181.601,853.572 181.97,852.85 C182.73,852.095 181.254,853.506 181.248,853.231 C181.245,853.136 181.367,853.085 181.427,853.012 C181.988,852.653 181.76,852.797 182.109,852.578 L182.169,852.461 L182.256,852.485 L182.432,852.374 C182.094,852.379 181.755,852.375 181.416,852.362 z M180.924,848.83 L179.587,849.794 L179.649,850 C179.662,849.989 179.661,849.989 179.65,850.003 L179.705,850.185 C179.292,850.386 179.513,850.226 179.154,850.796 L178.956,851.325 C178.636,851.735 178.79,851.542 178.495,851.907 L178.125,852.803 C177.205,853.759 177.629,853.365 176.882,854.018 L176.743,854.224 C176.581,854.617 176.584,854.454 176.605,854.693 C177.199,854.085 176.826,854.432 177.774,853.71 C177.971,853.23 177.851,853.531 178.125,852.804 L178.581,852.329 L178.956,851.325 L179.745,850.319 L179.705,850.185 L179.927,850.077 C179.76,850.301 179.822,850.222 179.745,850.319 C179.511,851.313 179.159,851.73 178.581,852.329 L178.175,853.416 L178.674,853.071 C178.875,852.722 178.691,853.038 179.31,852.178 C179.642,851.48 179.934,850.762 180.294,850.078 C181.057,850.522 180.238,851.269 179.885,851.726 C179.885,851.726 179.886,851.726 179.886,851.726 C179.9,851.795 179.914,851.864 179.928,851.933 C179.833,852.485 179.899,852.232 179.746,852.697 C180.335,852.609 180.072,852.652 180.536,852.573 C180.751,852.297 180.599,852.494 180.985,851.975 C181.126,851.403 181.212,850.817 181.38,850.252 C181.347,850.21 181.365,850.239 181.347,850.155 L181.422,850.109 C181.596,849.525 181.502,849.843 181.706,849.157 C180.748,849.572 181.033,849.784 180.66,849.337 C180.903,848.852 180.786,849.002 180.924,848.831 L180.924,848.83 z M176.728,854.043 L176.322,854.507 L176.57,854.289 L176.728,854.043 z M179.268,850.489 L179.108,850.685 C177.992,852.321 178.588,851.434 177.327,853.351 C177.13,853.596 177.277,853.416 176.872,853.878 L176.79,854.097 L176.882,854.017 C177.262,853.451 177.114,853.674 177.327,853.351 L178.494,851.906 C178.71,851.384 178.535,851.778 179.154,850.796 L179.268,850.489 z M186.6,853.595 L186.602,853.607 L186.675,853.797 L186.773,853.699 L186.6,853.595 z M177.407,852.928 C176.946,853.659 177.062,853.369 176.927,853.731 C177.224,853.265 177.079,853.493 177.363,853.046 L177.407,852.928 z M182.604,852.375 C182.458,852.495 182.535,852.435 182.372,852.555 L182.492,852.675 L182.554,853.096 L182.858,852.674 C182.607,853.06 182.706,852.906 182.56,853.136 L182.596,853.381 C182.976,852.565 182.772,852.886 183.14,852.378 C182.833,852.379 183.012,852.38 182.604,852.375 z M180.875,852.513 C180.827,852.529 180.871,852.515 180.741,852.539 L180.672,853.273 L180.81,853.095 C180.813,853.09 180.817,853.085 180.821,853.08 C180.862,852.614 180.842,852.802 180.875,852.513 z M196.261,851.625 L196.149,853.258 C196.3,851.891 196.31,852.437 196.261,851.626 L196.261,851.625 z M183.713,852.43 L183.516,852.95 C183.589,852.883 183.524,852.936 183.763,852.999 C184.201,852.659 184.016,852.803 184.319,852.566 L183.713,852.43 z M179.884,851.726 C179.584,851.764 179.476,851.946 179.31,852.178 L178.959,852.933 L178.998,852.917 L179.195,852.674 L179.2,852.675 L179.037,852.901 C179.167,852.851 179.293,852.784 179.43,852.757 C179.377,852.662 179.424,852.729 179.2,852.676 L179.884,851.726 z M180.755,852.387 L180.638,852.556 L180.741,852.539 L180.755,852.387 z M180.95,852.12 L180.862,852.232 L180.789,852.338 L180.898,852.342 L180.95,852.121 L180.95,852.12 z M182.575,851.003 C182.448,851.397 182.09,851.91 182.093,852.337 C182.589,851.733 182.418,851.973 182.644,851.646 C182.445,851.434 182.574,851.606 182.575,851.003 z M182.432,851.056 C181.673,852.063 182.003,851.653 181.465,852.302 C182.264,851.593 181.942,852.009 182.432,851.056 z M185.123,851.175 L185.081,851.27 L185.159,851.285 L185.123,851.175 z M184.419,849.862 L184.394,849.867 L184.043,850.083 L183.96,850.168 L184.599,850.232 C184.501,850.593 184.592,850.304 184.094,850.986 L183.913,851.046 L184.109,851.084 L184.323,850.82 L184.215,851.104 L184.271,851.115 C184.461,850.918 184.651,850.721 184.841,850.524 C184.847,850.518 184.852,850.511 184.858,850.505 C184.794,850.403 184.851,850.493 184.684,850.241 L184.599,850.232 L184.621,850.151 L184.419,849.862 z M196.9,846.291 L196.611,846.534 L196.343,850.431 L196.9,851.107 L196.9,846.291 z M185.159,849.732 L184.714,849.81 L184.621,850.151 L184.684,850.241 L185.066,850.279 C185.096,849.903 185.064,850.086 185.159,849.732 z M188.372,845.647 C188.257,845.901 188.346,845.714 188.06,846.184 L188.095,846.26 C187.991,846.51 188.066,846.42 187.9,846.556 C187.437,847.144 187.746,846.771 186.931,847.636 C186.449,848.239 186.721,847.939 186.104,848.525 C186.128,848.612 186.118,848.695 186.11,848.784 C186.285,848.735 186.355,848.671 186.54,848.715 C187.032,848.261 187.425,847.727 187.817,847.187 L187.817,847.187 L187.817,847.187 C188.161,846.516 187.958,846.831 188.429,846.241 L188.429,846.24 L188.429,846.24 L188.429,846.239 C188.506,845.94 188.602,845.887 188.372,845.647 z M181.975,848.073 L181.4,848.487 L181.392,848.594 L181.763,848.542 L181.975,848.073 z M187.319,845.478 L187.166,845.488 C186.536,846.15 185.939,846.852 185.226,847.423 L185.152,847.673 C185.892,847.118 185.568,847.373 186.131,846.918 C186.252,846.543 186.163,846.77 186.45,846.26 C186.621,846.027 186.931,845.942 187.172,845.783 L187.319,845.478 z M188.696,845.888 L188.429,846.239 L188.429,846.24 L188.429,846.24 L188.429,846.241 C188.297,846.608 188.063,846.895 187.817,847.187 L187.817,847.187 C187.666,847.537 187.599,847.59 187.986,847.482 L188.651,846.988 C188.701,846.057 188.696,846.425 188.696,845.889 L188.696,845.888 z M184.351,846.359 L184.272,846.416 C184.137,846.567 183.986,846.687 183.893,846.869 L183.956,846.895 C184.106,846.731 184.232,846.548 184.351,846.36 L184.351,846.359 z M187.398,845.629 L187.172,845.783 L186.944,846.26 C187.178,846.072 186.981,846.239 187.398,845.629 z M186.198,845.952 C186.17,845.97 186.188,845.956 186.15,846.003 L186.155,845.999 L186.198,845.952 z M188.325,843.494 L186.807,844.589 L186.802,844.598 L186.814,844.619 C187.72,844.074 187.296,844.201 188.028,844.076 C188.127,843.882 188.224,843.687 188.325,843.494 L188.325,843.494 z M188.885,843.09 L188.708,843.217 C188.717,843.369 188.687,843.474 188.604,843.596 L188.832,843.378 L188.885,843.09 z M195.696,839.004 C196.41,841.212 196.262,840.114 196.211,842.287 L196.9,842.339 L196.872,842.742 L196.9,842.736 L196.9,839.057 L195.696,839.004 z M196.9,837.311 L195.368,838.416 C195.906,838.559 196.401,838.814 196.9,839.057 L196.9,837.311 z M812.539,833.577 C812.735,834.03 812.91,834.491 813.085,834.951 L813.086,834.952 L813.086,834.952 L813.086,834.952 L813.402,834.952 L813.311,834.727 C813.056,834.343 812.798,833.961 812.54,833.578 L812.539,833.577 z M811.336,826.872 L811.336,834.952 L813.086,834.952 L813.085,834.951 L811.817,832.348 C811.582,832.246 811.703,832.309 811.458,832.151 L811.652,832.009 L811.336,831.36 L811.416,831.464 L811.336,831.302 L811.473,831.538 C811.662,831.781 811.859,831.999 811.984,832.281 L812.243,832.514 C813.416,832.972 812.976,832.763 813.594,833.071 C813.355,832.476 813.502,832.845 813.157,831.962 C812.95,832.52 813.145,832.404 812.545,832.262 L811.336,826.872 z M812.052,832.442 L812.204,832.793 L813.268,834.62 C812.726,833.281 813.055,833.989 812.243,832.515 L812.052,832.442 z M812.524,825.518 L812.528,825.665 C813.181,828.902 813.069,827.531 813.136,829.747 L813.514,830.997 L813.286,831.614 L813.667,833.107 L814.258,833.403 C813.986,832.609 813.758,831.8 813.514,830.997 C813.7,830.48 813.647,830.738 813.686,830.224 L812.524,825.518 z M812.623,827.89 L812.64,828.111 L812.737,828.433 L813.155,830.407 L813.135,829.747 L812.737,828.433 L812.623,827.89 z M808.817,816.573 L808.216,817.877 L809.785,817.877 L809.654,817.362 L809.403,816.959 L808.817,816.573 z M810.456,817.65 L810.504,817.877 L810.638,817.877 L810.607,817.75 L810.456,817.65 z M809.525,817.039 L809.654,817.362 L809.753,817.503 L809.71,817.16 L809.525,817.039 z M498.342,620.729 L498.595,620.812 C497.73,620.873 498.04,620.849 497.667,620.878 L498.802,620.878 C498.679,620.841 498.748,620.862 498.595,620.812 L499.487,620.753 L499.487,620.742 L498.342,620.729 z M499.635,620.743 L499.487,620.753 L499.49,620.86 L499.558,620.878 L500.335,620.878 C500.339,620.821 500.337,620.857 500.334,620.771 L500.328,620.767 L500.086,620.748 L499.635,620.743 z M506.998,620.877 L506.998,620.878 L507.451,620.878 L507.452,620.877 L506.998,620.877 z M507.589,620.877 L507.589,620.878 L511.04,620.878 L511.039,620.877 L507.589,620.877 z M507.72,620.766 L506.84,620.768 L506.915,620.821 L507.697,620.786 L507.72,620.766 z M508.176,620.764 L507.915,620.765 L507.86,620.778 L508.176,620.764 z M497.615,620.493 L497.498,620.578 L497.939,620.598 L498.331,620.726 L499.486,620.726 L499.485,620.67 L497.939,620.598 L497.615,620.493 z M498.067,620.168 L497.924,620.271 C498.981,620.428 498.462,620.351 499.48,620.502 L499.485,620.67 L500.238,620.705 L500.073,620.59 L499.48,620.502 L499.478,620.44 C499.008,620.35 498.534,620.277 498.067,620.168 z M507.274,619.787 C507.013,620.224 506.323,620.232 505.868,620.292 L506.064,620.562 L506.446,620.628 C507.122,620.574 506.6,620.618 508.007,620.468 L508.055,620.402 C507.766,620.237 507.488,620.047 507.274,619.787 z M516.12,619.489 C515.098,619.489 514.076,619.489 513.054,619.489 C512.067,619.766 511.072,620.005 510.076,620.244 L510.084,620.249 C512.174,620.021 514.267,619.838 516.36,619.642 L516.36,619.641 L516.12,619.489 z M517.171,618.795 C517.431,618.982 517.69,619.17 517.95,619.357 L518.442,619.44 L518.933,619.334 L519.014,618.891 C518.26,618.845 518.873,618.882 517.171,618.795 z M519.007,618.928 L517.407,618.965 C517.94,618.949 518.473,618.938 519.007,618.928 z M516.773,618.774 C515.705,618.79 516.123,618.741 515.51,618.833 L515.937,619.02 L516.625,619.135 L516.827,618.835 L517.013,618.787 L516.773,618.774 z M491.083,618.006 L489.832,618.097 L489.754,618.116 C490.537,618.248 491.311,618.431 492.086,618.601 L492.124,618.629 L492.304,618.648 L492.614,618.716 L492.822,618.835 L493.136,618.945 C493.285,618.962 493.186,618.951 493.434,618.98 C493.151,618.866 493.324,618.937 492.916,618.767 C492.712,618.742 492.812,618.759 492.614,618.716 C492.471,618.634 492.568,618.676 492.304,618.648 L492.086,618.601 L491.535,618.194 C491.156,618.036 491.307,618.098 491.083,618.006 z M514.623,618.449 L515.26,618.897 L515.048,618.954 L515.363,618.97 L515.26,618.897 L515.494,618.835 L515.51,618.833 C514.779,618.513 515.076,618.639 514.623,618.449 z M492.193,618.68 C492.414,618.843 492.299,618.78 492.534,618.875 L492.879,618.915 L492.822,618.835 L492.193,618.68 z M513.374,617.725 L513.507,617.783 C513.508,617.784 513.51,617.785 513.511,617.785 C517.96,618.736 516.106,618.487 519.032,618.787 C519.079,618.505 519.154,618.228 519.219,617.949 L516.653,617.833 L513.374,617.725 z M528.483,617.17 L525.858,617.174 C525.065,618.438 523.572,618.184 522.298,618.018 L519.966,617.97 C520.959,618.342 520.388,618.102 521.658,618.747 C525.295,617.963 522.94,618.467 528.727,617.251 L528.483,617.17 z M503.322,617.394 C503.184,617.895 503.288,617.711 503.091,617.988 L503.201,618.03 C504.476,617.943 505.773,617.996 506.99,618.462 L507.045,618.252 L507.518,618.563 L509.246,618.659 C509.558,618.204 509.302,618.569 510.082,617.617 L504.975,617.449 L507.045,617.789 C505.907,617.59 504.742,617.61 503.606,617.404 L503.322,617.394 z M489.424,618.13 L489.363,618.131 L488.861,618.167 L489.611,618.305 C489.693,618.381 489.72,618.441 489.736,618.552 C490.264,618.613 490.002,618.583 490.523,618.642 C490.68,618.624 491.242,618.554 491.431,618.558 C491.582,618.561 491.733,618.588 491.883,618.603 C491.139,618.433 490.363,618.444 489.611,618.305 L489.488,618.16 L489.424,618.13 z M486.978,617.73 C488.178,617.992 487.596,617.856 488.724,618.135 L489.363,618.131 L489.416,618.127 L489.148,618.005 C487.527,617.707 488.253,617.77 486.978,617.73 z M489.488,617.484 L485.846,617.484 C486.672,617.593 488.405,617.667 489.148,618.005 L489.7,618.106 L489.832,618.097 L490.733,617.87 C490.32,617.735 489.903,617.613 489.488,617.484 z M519.319,617.525 L519.274,617.711 L519.882,617.938 L522.292,618.017 L522.049,617.986 C519.969,617.688 520.876,617.858 519.319,617.525 z M516.688,616.927 C514.158,617.285 515.445,617.099 512.826,617.484 L512.339,617.484 L512.507,617.498 C512.672,617.487 512.566,617.493 512.826,617.484 L512.936,617.533 L516.653,617.833 L519.226,617.917 L519.274,617.711 L517.563,617.15 C517.243,617.082 517.537,617.145 516.688,616.927 z M479.469,616.551 L473.384,616.551 C476.439,616.653 479.451,617.151 482.472,617.573 C483.117,617.437 482.778,617.475 483.491,617.477 C483.509,617.445 483.51,617.393 483.544,617.38 C484.129,617.143 484.799,617.325 485.395,617.436 L485.582,617.456 C486.52,617.176 486.12,617.27 486.773,617.136 C485.751,616.948 484.665,617.126 483.683,616.75 L480.03,616.63 L480.803,616.551 L480.282,616.551 C480.011,616.56 479.739,616.579 479.469,616.551 z M501.182,617.324 C501.676,617.436 501.479,617.37 501.785,617.487 L501.975,617.35 L501.182,617.324 z M511.666,617.387 C511.534,617.393 511.565,617.357 511.529,617.419 L512.08,617.464 L511.86,617.394 L511.666,617.387 z M510.307,616.616 L505.742,616.946 L510.324,617.321 C510.771,616.774 510.552,616.999 510.959,616.624 L510.307,616.616 z M525.715,616.645 L525.791,616.836 L528.243,617.098 C527.232,616.795 528.056,617.028 525.715,616.645 z M534.283,616.551 L530.862,616.551 L531.93,616.808 L534.283,616.551 z" fill-opacity="0" stroke="#FFFFFF" stroke-width="1" stroke-linecap="round" stroke-linejoin="round"/>
    </g>
  </g>
  <g id="outsidecircle">
    <path d="M493.93,987.167 C230.601,987.167 17.131,768.98 17.131,499.833 C17.131,230.687 230.601,12.5 493.93,12.5 C757.259,12.5 970.729,230.687 970.729,499.833 C970.729,768.98 757.259,987.167 493.93,987.167" fill-opacity="0" stroke="#000000" stroke-width="20"/>
  </g>
</svg>
